<?xml version="1.0" standalone="no"?><!DOCTYPE svg PUBLIC "-//W3C//DTD SVG 1.1//EN" "http://www.w3.org/Graphics/SVG/1.1/DTD/svg11.dtd"><svg t="1741167470061" class="icon" viewBox="0 0 1024 1024" version="1.1" xmlns="http://www.w3.org/2000/svg" p-id="2799" width="32" height="32" xmlns:xlink="http://www.w3.org/1999/xlink"><path d="M813 206C657 16.6 367 16.6 211 206l-1 1.2c-116.9 142-118.6 346.2-4.3 490.5 66.3 83.6 145.5 162.7 237 237.4 40.3 33 98.8 33.2 139.2 0.2 94.3-76.9 176-160.8 244.9-251.6C934.4 542.1 926.2 343.5 813 206M512 586.1c-79 0-143-64-143-143s64-143 143-143 143 64 143 143-64 143-143 143" p-id="2800" fill="#ffffff"></path></svg>