<?xml version="1.0" standalone="no"?><!DOCTYPE svg PUBLIC "-//W3C//DTD SVG 1.1//EN" "http://www.w3.org/Graphics/SVG/1.1/DTD/svg11.dtd"><svg t="1741751015902" class="icon" viewBox="0 0 1024 1024" version="1.1" xmlns="http://www.w3.org/2000/svg" p-id="8103" xmlns:xlink="http://www.w3.org/1999/xlink" width="32" height="32"><path d="M512 0c282.763636 0 512 229.236364 512 512s-229.236364 512-512 512S0 794.763636 0 512 229.236364 0 512 0z m230.4 281.6a34.909091 34.909091 0 0 0-49.384727 0L512 462.661818 330.984727 281.6a34.909091 34.909091 0 1 0-49.361454 49.338182L462.638545 512 281.6 693.015273a34.909091 34.909091 0 1 0 49.338182 49.361454L512 561.361455l181.015273 181.015272a34.909091 34.909091 0 1 0 49.361454-49.338182L561.361455 512l181.015272-181.015273a34.909091 34.909091 0 0 0 0-49.361454z" fill="#8a8a8a" p-id="8104"></path></svg>