<?xml version="1.0" standalone="no"?><!DOCTYPE svg PUBLIC "-//W3C//DTD SVG 1.1//EN" "http://www.w3.org/Graphics/SVG/1.1/DTD/svg11.dtd"><svg t="1741681741947" class="icon" viewBox="0 0 1228 1024" version="1.1" xmlns="http://www.w3.org/2000/svg" p-id="5719" xmlns:xlink="http://www.w3.org/1999/xlink" width="38.375" height="32"><path d="M1228.8 702.464v163.84A157.696 157.696 0 0 1 1071.616 1024H566.784A157.696 157.696 0 0 1 409.6 866.816v-163.84a164.864 164.864 0 0 1 98.816-145.92 829.952 829.952 0 0 1 622.08 0A164.864 164.864 0 0 1 1228.8 702.464zM819.2 409.6a204.8 204.8 0 1 0-204.8-204.8 204.8 204.8 0 0 0 204.8 204.8zM460.8 460.8a51.2 51.2 0 0 0 0-102.4H307.2V204.8a51.2 51.2 0 0 0-102.4 0v153.6H51.2a51.2 51.2 0 0 0 0 102.4h153.6v153.6a51.2 51.2 0 0 0 102.4 0V460.8z" fill="#ffffff" p-id="5720"></path></svg>