<?xml version="1.0" standalone="no"?><!DOCTYPE svg PUBLIC "-//W3C//DTD SVG 1.1//EN" "http://www.w3.org/Graphics/SVG/1.1/DTD/svg11.dtd"><svg t="1741681544816" class="icon" viewBox="0 0 1024 1024" version="1.1" xmlns="http://www.w3.org/2000/svg" p-id="3780" xmlns:xlink="http://www.w3.org/1999/xlink" width="32" height="32"><path d="M773.4 591.4l-69.6-69.6 46.2-46.2 69.6 69.6-46.2 46.2zM613.8 432l46.2-46 68.6 68.6-46 46.2-68.8-68.8z m-89.6-89.8l46.2-46.2 68.6 68.6-46.2 46.2-68.6-68.6z m-90.8-90.6l46.2-46.2 69.6 69.6-46.2 46.2-69.6-69.6z m440-11.4l-23 23c-1.4 1.4-3 2.8-4.6 4.2-1.6 1.4-3.2 2.6-5 3.6-1.8 1.2-3.4 2.2-5.2 3.2-1.8 1-3.6 1.8-5.6 2.6-1.8 0.8-3.8 1.4-5.8 2-2 0.6-4 1-6 1.4-2 0.4-4 0.8-6 1-2 0.2-4 0.4-6.2 0.4s-4-0.2-6.2-0.4c-2-0.2-4-0.6-6-1s-4-0.8-6-1.4c-2-0.6-3.8-1.2-5.8-2-1.8-0.8-3.8-1.6-5.6-2.6-1.8-1-3.6-2-5.2-3.2-1.8-1.2-3.4-2.4-5-3.6-1.6-1.4-3.2-2.6-4.6-4.2-1.4-1.4-2.8-3-4.2-4.6-1.4-1.6-2.6-3.2-3.6-5-1.2-1.8-2.2-3.4-3.2-5.2-1-1.8-1.8-3.6-2.6-5.6-0.8-1.8-1.4-3.8-2-5.8-0.6-2-1-4-1.4-6-0.4-2-0.8-4-1-6-0.2-2-0.4-4-0.4-6.2 0-2 0.2-4 0.4-6.2 0.2-2 0.6-4 1-6s0.8-4 1.4-6c0.6-2 1.2-3.8 2-5.8 0.8-1.8 1.6-3.8 2.6-5.6 1-1.8 2-3.6 3.2-5.2s2.4-3.4 3.6-5c1.4-1.6 2.6-3.2 4.2-4.6l23-23-147-147L452 190.2l-8.4 25.6-25.6 8.4-410 410 147.2 147.2 23-23c1.4-1.4 3-2.8 4.6-4.2 1.6-1.4 3.2-2.6 5-3.6 1.8-1.2 3.4-2.2 5.2-3.2 1.8-1 3.6-1.8 5.6-2.6 1.8-0.8 3.8-1.4 5.8-2 2-0.6 4-1 6-1.4 2-0.4 4-0.8 6-1 2-0.2 4-0.4 6.2-0.4 2 0 4 0.2 6.2 0.4 2 0.2 4 0.6 6 1s4 0.8 6 1.4c2 0.6 3.8 1.2 5.8 2 1.8 0.8 3.8 1.6 5.6 2.6 1.8 1 3.6 2 5.2 3.2 1.8 1.2 3.4 2.4 5 3.6 1.6 1.4 3.2 2.6 4.6 4.2 1.4 1.4 2.8 3 4.2 4.6 1.4 1.6 2.6 3.2 3.6 5 1.2 1.8 2.2 3.4 3.2 5.2 1 1.8 1.8 3.6 2.6 5.6 0.8 1.8 1.4 3.8 2 5.8s1 4 1.4 6c0.4 2 0.8 4 1 6 0.2 2 0.4 4 0.4 6.2 0 2-0.2 4-0.4 6.2-0.2 2-0.6 4-1 6s-0.8 4-1.4 6c-0.6 2-1.2 3.8-2 5.8-0.8 1.8-1.6 3.8-2.6 5.6-1 1.8-2 3.6-3.2 5.2-1.2 1.8-2.4 3.4-3.6 5-1.4 1.6-2.6 3.2-4.2 4.6L243.8 870l147 147 410-410 8.4-25.6 25.6-8.4 185.6-185.6-147-147.2z" p-id="3781" fill="#ffffff"></path></svg>